<svg width="459" height="39" viewBox="0 0 459 39" fill="none" xmlns="http://www.w3.org/2000/svg" xmlns:xlink="http://www.w3.org/1999/xlink">
<use xlink:href="#stroke0_20_3143" transform="translate(1.71957 33.4302) scale(0.0188028) rotate(71.8064)"/>
<use xlink:href="#stroke0_20_3143" transform="translate(-1.65671 38.2811) scale(0.0191243) rotate(-96.8729)"/>
<use xlink:href="#stroke0_20_3143" transform="translate(-1.91703 35.4017) scale(0.0179822) rotate(-61.5554)"/>
<use xlink:href="#stroke0_20_3143" transform="translate(3.5214 30.6935) scale(0.0174668) rotate(69.1016)"/>
<use xlink:href="#stroke0_20_3143" transform="translate(5.85372 31.7444) scale(0.01727) rotate(114.255)"/>
<use xlink:href="#stroke0_20_3143" transform="translate(4.3994 28.8668) scale(0.0170172) rotate(59.5238)"/>
<use xlink:href="#stroke0_20_3143" transform="translate(1.13665 29.334) scale(0.0189115) rotate(-17.7253)"/>
<use xlink:href="#stroke0_20_3143" transform="translate(1.83906 30.7043) scale(0.0171432) rotate(-55.2331)"/>
<use xlink:href="#stroke0_20_3143" transform="translate(7.84202 32.0074) scale(0.017168) rotate(-175.634)"/>
<use xlink:href="#stroke0_20_3143" transform="translate(3.92893 30.7074) scale(0.0178664) rotate(-83.7704)"/>
<use xlink:href="#stroke0_20_3143" transform="translate(10.5686 26.1763) scale(0.0186222) rotate(103.37)"/>
<use xlink:href="#stroke0_20_3143" transform="translate(9.75362 30.5044) scale(0.0192792) rotate(-158.505)"/>
<use xlink:href="#stroke0_20_3143" transform="translate(7.29149 29.2544) scale(0.0190023) rotate(-101.6)"/>
<use xlink:href="#stroke0_20_3143" transform="translate(8.82912 22.3605) scale(0.0188552) rotate(17.7493)"/>
<use xlink:href="#stroke0_20_3143" transform="translate(7.88484 26.0806) scale(0.0193114) rotate(-66.7574)"/>
<use xlink:href="#stroke0_20_3143" transform="translate(11.4566 21.0153) scale(0.0172986) rotate(28.2197)"/>
<use xlink:href="#stroke0_20_3143" transform="translate(12.1463 20.0999) scale(0.0190372) rotate(25.0105)"/>
<use xlink:href="#stroke0_20_3143" transform="translate(17.8137 23.1582) scale(0.0188407) rotate(137.606)"/>
<use xlink:href="#stroke0_20_3143" transform="translate(11.9704 22.3402) scale(0.0174317) rotate(-48.7525)"/>
<use xlink:href="#stroke0_20_3143" transform="translate(13.3245 23.6025) scale(0.0186118) rotate(-80.6907)"/>
<use xlink:href="#stroke0_20_3143" transform="translate(20.8085 20.3672) scale(0.0189239) rotate(121.569)"/>
<use xlink:href="#stroke0_20_3143" transform="translate(15.0935 19.1343) scale(0.0187679) rotate(-24.698)"/>
<use xlink:href="#stroke0_20_3143" transform="translate(17.7745 22.7298) scale(0.01696) rotate(-106.967)"/>
<use xlink:href="#stroke0_20_3143" transform="translate(23.3479 17.3254) scale(0.0191181) rotate(96.9201)"/>
<use xlink:href="#stroke0_20_3143" transform="translate(22.0318 22.39) scale(0.0185564) rotate(-145.619)"/>
<use xlink:href="#stroke0_20_3143" transform="translate(22.9754 15.0105) scale(0.0182387) rotate(49.2784)"/>
<use xlink:href="#stroke0_20_3143" transform="translate(20.2587 18.773) scale(0.0186012) rotate(-60.5607)"/>
<use xlink:href="#stroke0_20_3143" transform="translate(24.7663 13.9328) scale(0.018861) rotate(42.5625)"/>
<use xlink:href="#stroke0_20_3143" transform="translate(27.5342 14.3577) scale(0.0168962) rotate(74.7086)"/>
<use xlink:href="#stroke0_20_3143" transform="translate(24.4082 18.7977) scale(0.0172386) rotate(-87.878)"/>
<use xlink:href="#stroke0_20_3143" transform="translate(25.2105 14.0269) scale(0.0187973) rotate(-7.87842)"/>
<use xlink:href="#stroke0_20_3143" transform="translate(25.7788 14.7294) scale(0.0185526) rotate(-28.0641)"/>
<use xlink:href="#stroke0_20_3143" transform="translate(27.0164 16.2413) scale(0.0171919) rotate(-60.2051)"/>
<use xlink:href="#stroke0_20_3143" transform="translate(32.6876 18.0301) scale(0.0170078) rotate(-164.283)"/>
<use xlink:href="#stroke0_20_3143" transform="translate(35.3796 15.9218) scale(0.0173822) rotate(151.995)"/>
<use xlink:href="#stroke0_20_3143" transform="translate(34.7256 17.5928) scale(0.0177782) rotate(-161.109)"/>
<use xlink:href="#stroke0_20_3143" transform="translate(31.0956 13.4283) scale(0.0183826) rotate(-34.1565)"/>
<use xlink:href="#stroke0_20_3143" transform="translate(38.6175 12.5157) scale(0.0176191) rotate(108.099)"/>
<use xlink:href="#stroke0_20_3143" transform="translate(36.517 17.0372) scale(0.0181011) rotate(-133.966)"/>
<use xlink:href="#stroke0_20_3143" transform="translate(38.1288 16.5553) scale(0.0170229) rotate(-142.983)"/>
<use xlink:href="#stroke0_20_3143" transform="translate(35.6887 12.7974) scale(0.0168918) rotate(-41.52)"/>
<use xlink:href="#stroke0_20_3143" transform="translate(38.3797 15.8048) scale(0.0176032) rotate(-109.052)"/>
<use xlink:href="#stroke0_20_3143" transform="translate(37.7363 13.999) scale(0.0192467) rotate(-69.2731)"/>
<use xlink:href="#stroke0_20_3143" transform="translate(41.808 15.7008) scale(0.0176351) rotate(-129.25)"/>
<use xlink:href="#stroke0_20_3143" transform="translate(42.5505 8.67621) scale(0.0191588) rotate(28.8086)"/>
<use xlink:href="#stroke0_20_3143" transform="translate(46.6596 14.9515) scale(0.0190439) rotate(-171.369)"/>
<use xlink:href="#stroke0_20_3143" transform="translate(46.4786 8.68307) scale(0.0168809) rotate(55.5839)"/>
<use xlink:href="#stroke0_20_3143" transform="translate(45.0351 8.56391) scale(0.0190025) rotate(11.2465)"/>
<use xlink:href="#stroke0_20_3143" transform="translate(46.6421 8.42557) scale(0.0177768) rotate(17.3835)"/>
<use xlink:href="#stroke0_20_3143" transform="translate(50.4611 14.7439) scale(0.0192797) rotate(-156.339)"/>
<use xlink:href="#stroke0_20_3143" transform="translate(53.4588 13.0431) scale(0.0186701) rotate(165.089)"/>
<use xlink:href="#stroke0_20_3143" transform="translate(53.9047 8.2887) scale(0.0187392) rotate(81.9807)"/>
<use xlink:href="#stroke0_20_3143" transform="translate(54.6184 7.80281) scale(0.0189093) rotate(72.1084)"/>
<use xlink:href="#stroke0_20_3143" transform="translate(53.9542 14.3322) scale(0.0186299) rotate(-135.167)"/>
<use xlink:href="#stroke0_20_3143" transform="translate(55.6446 7.12338) scale(0.0191677) rotate(48.5335)"/>
<use xlink:href="#stroke0_20_3143" transform="translate(53.4505 11.9853) scale(0.0174199) rotate(-71.0813)"/>
<use xlink:href="#stroke0_20_3143" transform="translate(54.4545 8.85432) scale(0.0191725) rotate(-18.5439)"/>
<use xlink:href="#stroke0_20_3143" transform="translate(62.0248 10.646) scale(0.017109) rotate(134.751)"/>
<use xlink:href="#stroke0_20_3143" transform="translate(61.5689 7.78476) scale(0.0169196) rotate(74.5754)"/>
<use xlink:href="#stroke0_20_3143" transform="translate(59.0638 13.4649) scale(0.0189767) rotate(-103.642)"/>
<use xlink:href="#stroke0_20_3143" transform="translate(63.4769 7.0711) scale(0.0190742) rotate(62.5786)"/>
<use xlink:href="#stroke0_20_3143" transform="translate(60.6074 8.52329) scale(0.0182746) rotate(-13.002)"/>
<use xlink:href="#stroke0_20_3143" transform="translate(64.4479 13.8295) scale(0.0177984) rotate(-134.183)"/>
<use xlink:href="#stroke0_20_3143" transform="translate(66.2464 13.8798) scale(0.0180921) rotate(-145.174)"/>
<use xlink:href="#stroke0_20_3143" transform="translate(68.442 13.8052) scale(0.0190005) rotate(-161.437)"/>
<use xlink:href="#stroke0_20_3143" transform="translate(69.2014 13.9058) scale(0.0184162) rotate(-154.504)"/>
<use xlink:href="#stroke0_20_3143" transform="translate(71.7478 13.0612) scale(0.0180653) rotate(177.817)"/>
<use xlink:href="#stroke0_20_3143" transform="translate(69.9167 7.32404) scale(0.0182831) rotate(33.0884)"/>
<use xlink:href="#stroke0_20_3143" transform="translate(68.9828 8.90196) scale(0.0173184) rotate(-11.3487)"/>
<use xlink:href="#stroke0_20_3143" transform="translate(70.4166 8.31254) scale(0.0186757) rotate(0.500821)"/>
<use xlink:href="#stroke0_20_3143" transform="translate(72.0463 13.9898) scale(0.0186831) rotate(-103.82)"/>
<use xlink:href="#stroke0_20_3143" transform="translate(78.497 9.64741) scale(0.0192848) rotate(107.936)"/>
<use xlink:href="#stroke0_20_3143" transform="translate(73.5019 12.857) scale(0.017149) rotate(-75.2423)"/>
<use xlink:href="#stroke0_20_3143" transform="translate(74.3449 10.3534) scale(0.0175282) rotate(-27.1061)"/>
<use xlink:href="#stroke0_20_3143" transform="translate(78.0717 8.5054) scale(0.0168939) rotate(34.1717)"/>
<use xlink:href="#stroke0_20_3143" transform="translate(76.4192 11.475) scale(0.0171088) rotate(-40.623)"/>
<use xlink:href="#stroke0_20_3143" transform="translate(83.716 13.8669) scale(0.018435) rotate(164.323)"/>
<use xlink:href="#stroke0_20_3143" transform="translate(80.8257 9.25138) scale(0.0169247) rotate(23.8235)"/>
<use xlink:href="#stroke0_20_3143" transform="translate(84.7053 9.82982) scale(0.0170028) rotate(76.5238)"/>
<use xlink:href="#stroke0_20_3143" transform="translate(87.5577 12.73) scale(0.0185997) rotate(132.294)"/>
<use xlink:href="#stroke0_20_3143" transform="translate(85.4716 9.67579) scale(0.0179324) rotate(47.7878)"/>
<use xlink:href="#stroke0_20_3143" transform="translate(85.2462 10.2168) scale(0.0174573) rotate(24.6281)"/>
<use xlink:href="#stroke0_20_3143" transform="translate(90.5588 13.7578) scale(0.0170368) rotate(134.571)"/>
<use xlink:href="#stroke0_20_3143" transform="translate(85.8005 16.2204) scale(0.0181628) rotate(-87.5167)"/>
<use xlink:href="#stroke0_20_3143" transform="translate(89.3997 17.62) scale(0.0172317) rotate(-135.42)"/>
<use xlink:href="#stroke0_20_3143" transform="translate(93.6623 14.1041) scale(0.0169925) rotate(121.423)"/>
<use xlink:href="#stroke0_20_3143" transform="translate(89.9077 12.346) scale(0.0171929) rotate(12.8406)"/>
<use xlink:href="#stroke0_20_3143" transform="translate(90.1575 17.9111) scale(0.0174568) rotate(-90.9138)"/>
<use xlink:href="#stroke0_20_3143" transform="translate(91.1022 18.7839) scale(0.0190439) rotate(-93.6738)"/>
<use xlink:href="#stroke0_20_3143" transform="translate(91.1943 15.8397) scale(0.0188744) rotate(-31.8593)"/>
<use xlink:href="#stroke0_20_3143" transform="translate(96.69 14.1988) scale(0.0178538) rotate(61.0712)"/>
<use xlink:href="#stroke0_20_3143" transform="translate(99.7315 18.5403) scale(0.0169719) rotate(142.237)"/>
<use xlink:href="#stroke0_20_3143" transform="translate(96.491 15.4184) scale(0.0179363) rotate(25.7043)"/>
<use xlink:href="#stroke0_20_3143" transform="translate(101.565 18.5792) scale(0.0171917) rotate(119.72)"/>
<use xlink:href="#stroke0_20_3143" transform="translate(95.9707 20.6855) scale(0.0180413) rotate(-58.8402)"/>
<use xlink:href="#stroke0_20_3143" transform="translate(98.4153 23.8667) scale(0.0192589) rotate(-106.779)"/>
<use xlink:href="#stroke0_20_3143" transform="translate(101.548 24.6463) scale(0.0170251) rotate(-143.957)"/>
<use xlink:href="#stroke0_20_3143" transform="translate(103.322 25.3513) scale(0.018173) rotate(-158.994)"/>
<use xlink:href="#stroke0_20_3143" transform="translate(106.455 22.5492) scale(0.018619) rotate(126.852)"/>
<use xlink:href="#stroke0_20_3143" transform="translate(101.601 21.1502) scale(0.0179035) rotate(0.948726)"/>
<use xlink:href="#stroke0_20_3143" transform="translate(107.962 22.742) scale(0.0191219) rotate(104.957)"/>
<use xlink:href="#stroke0_20_3143" transform="translate(104.668 28.4289) scale(0.01793) rotate(-119.76)"/>
<use xlink:href="#stroke0_20_3143" transform="translate(106.888 22.4953) scale(0.0183533) rotate(48.0667)"/>
<use xlink:href="#stroke0_20_3143" transform="translate(106.952 30.2389) scale(0.0188748) rotate(-128.497)"/>
<use xlink:href="#stroke0_20_3143" transform="translate(108.009 24.239) scale(0.017129) rotate(36.2773)"/>
<use xlink:href="#stroke0_20_3143" transform="translate(108.509 31.433) scale(0.0177496) rotate(-124.464)"/>
<use xlink:href="#stroke0_20_3143" transform="translate(112.768 26.4027) scale(0.0191044) rotate(88.9483)"/>
<use xlink:href="#stroke0_20_3143" transform="translate(109.904 32.9171) scale(0.0184488) rotate(-116.813)"/>
<use xlink:href="#stroke0_20_3143" transform="translate(113.923 33.3336) scale(0.0185348) rotate(-169.353)"/>
<use xlink:href="#stroke0_20_3143" transform="translate(116.097 32.1444) scale(0.0174458) rotate(152.099)"/>
<use xlink:href="#stroke0_20_3143" transform="translate(110.972 29.8296) scale(0.0186187) rotate(-14.457)"/>
<use xlink:href="#stroke0_20_3143" transform="translate(116.599 35.1247) scale(0.017166) rotate(-169.131)"/>
<use xlink:href="#stroke0_20_3143" transform="translate(118.45 35.3351) scale(0.0185361) rotate(174.819)"/>
<use xlink:href="#stroke0_20_3143" transform="translate(115.889 30.3801) scale(0.0177534) rotate(26.2483)"/>
<use xlink:href="#stroke0_20_3143" transform="translate(120.187 36.5014) scale(0.0176121) rotate(177.969)"/>
<use xlink:href="#stroke0_20_3143" transform="translate(115.944 33.1429) scale(0.0172898) rotate(-19.6768)"/>
<use xlink:href="#stroke0_20_3143" transform="translate(118.759 31.7416) scale(0.0189131) rotate(24.2179)"/>
<use xlink:href="#stroke0_20_3143" transform="translate(123.826 34.0675) scale(0.0169993) rotate(105.457)"/>
<use xlink:href="#stroke0_20_3143" transform="translate(120.89 32.6367) scale(0.0183083) rotate(23.1804)"/>
<use xlink:href="#stroke0_20_3143" transform="translate(122.208 39.4382) scale(0.0180225) rotate(-120.501)"/>
<use xlink:href="#stroke0_20_3143" transform="translate(126.125 33.2923) scale(0.0189497) rotate(72.344)"/>
<use xlink:href="#stroke0_20_3143" transform="translate(125.357 39.8537) scale(0.0172148) rotate(-134.662)"/>
<use xlink:href="#stroke0_20_3143" transform="translate(128.893 39.2974) scale(0.0179625) rotate(-179.203)"/>
<use xlink:href="#stroke0_20_3143" transform="translate(127.334 33.6048) scale(0.0177325) rotate(35.6747)"/>
<use xlink:href="#stroke0_20_3143" transform="translate(130.546 40.1197) scale(0.0183986) rotate(-165.253)"/>
<use xlink:href="#stroke0_20_3143" transform="translate(133.202 37.9094) scale(0.0172004) rotate(146.342)"/>
<use xlink:href="#stroke0_20_3143" transform="translate(133.724 39.2345) scale(0.0172961) rotate(170.943)"/>
<use xlink:href="#stroke0_20_3143" transform="translate(135.419 37.7379) scale(0.016982) rotate(141.447)"/>
<use xlink:href="#stroke0_20_3143" transform="translate(131.601 34.4842) scale(0.0174306) rotate(10.615)"/>
<use xlink:href="#stroke0_20_3143" transform="translate(134.859 33.6402) scale(0.019182) rotate(48.1431)"/>
<use xlink:href="#stroke0_20_3143" transform="translate(139.026 36.7076) scale(0.0177155) rotate(124.567)"/>
<use xlink:href="#stroke0_20_3143" transform="translate(138.966 39.6767) scale(0.0176827) rotate(-176.636)"/>
<use xlink:href="#stroke0_20_3143" transform="translate(137.688 40.4512) scale(0.01851) rotate(-132.031)"/>
<use xlink:href="#stroke0_20_3143" transform="translate(141.991 38.2477) scale(0.0169767) rotate(159.579)"/>
<use xlink:href="#stroke0_20_3143" transform="translate(138.057 34.0094) scale(0.0179288) rotate(2.98166)"/>
<use xlink:href="#stroke0_20_3143" transform="translate(138.186 35.3507) scale(0.0175752) rotate(-29.2744)"/>
<use xlink:href="#stroke0_20_3143" transform="translate(142.633 32.4793) scale(0.0191073) rotate(45.1942)"/>
<use xlink:href="#stroke0_20_3143" transform="translate(146.374 38.0691) scale(0.0189194) rotate(173.371)"/>
<use xlink:href="#stroke0_20_3143" transform="translate(141.375 36.2311) scale(0.0187391) rotate(-61.2237)"/>
<use xlink:href="#stroke0_20_3143" transform="translate(143.242 32.6901) scale(0.0186362) rotate(-7.03583)"/>
<use xlink:href="#stroke0_20_3143" transform="translate(143.833 35.0979) scale(0.0170059) rotate(-57.3616)"/>
<use xlink:href="#stroke0_20_3143" transform="translate(145.415 32.0877) scale(0.0173007) rotate(-9.49618)"/>
<use xlink:href="#stroke0_20_3143" transform="translate(151.625 35.5345) scale(0.0172325) rotate(169.16)"/>
<use xlink:href="#stroke0_20_3143" transform="translate(148.961 36.3115) scale(0.0179201) rotate(-119.158)"/>
<use xlink:href="#stroke0_20_3143" transform="translate(148.865 29.6277) scale(0.019199) rotate(5.75712)"/>
<use xlink:href="#stroke0_20_3143" transform="translate(149.669 34.1629) scale(0.0173482) rotate(-90.136)"/>
<use xlink:href="#stroke0_20_3143" transform="translate(156.107 29.637) scale(0.0185102) rotate(103.964)"/>
<use xlink:href="#stroke0_20_3143" transform="translate(154.584 33.9395) scale(0.0174223) rotate(-147.149)"/>
<use xlink:href="#stroke0_20_3143" transform="translate(151.735 28.8286) scale(0.0182906) rotate(-26.3523)"/>
<use xlink:href="#stroke0_20_3143" transform="translate(154.485 26.2893) scale(0.0180575) rotate(18.01)"/>
<use xlink:href="#stroke0_20_3143" transform="translate(155.284 31.948) scale(0.0192797) rotate(-111.067)"/>
<use xlink:href="#stroke0_20_3143" transform="translate(154.916 29.334) scale(0.0169549) rotate(-72.2496)"/>
<use xlink:href="#stroke0_20_3143" transform="translate(161.749 26.3849) scale(0.0169941) rotate(116.088)"/>
<use xlink:href="#stroke0_20_3143" transform="translate(157.041 29.0358) scale(0.0185993) rotate(-91.0536)"/>
<use xlink:href="#stroke0_20_3143" transform="translate(157.333 27.4657) scale(0.018878) rotate(-74.2182)"/>
<use xlink:href="#stroke0_20_3143" transform="translate(164.476 24.293) scale(0.0168895) rotate(117.911)"/>
<use xlink:href="#stroke0_20_3143" transform="translate(165.703 23.8849) scale(0.0183906) rotate(124.521)"/>
<use xlink:href="#stroke0_20_3143" transform="translate(163.87 20.375) scale(0.017716) rotate(55.259)"/>
<use xlink:href="#stroke0_20_3143" transform="translate(166.622 20.746) scale(0.0178818) rotate(93.1661)"/>
<use xlink:href="#stroke0_20_3143" transform="translate(162.232 20.1891) scale(0.0175222) rotate(-10.5117)"/>
<use xlink:href="#stroke0_20_3143" transform="translate(163.32 19.338) scale(0.0169381) rotate(-5.94769)"/>
<use xlink:href="#stroke0_20_3143" transform="translate(167.23 17.57) scale(0.0171179) rotate(54.8271)"/>
<use xlink:href="#stroke0_20_3143" transform="translate(169.877 22.0474) scale(0.016985) rotate(171.981)"/>
<use xlink:href="#stroke0_20_3143" transform="translate(171.557 19.3782) scale(0.0175829) rotate(134.196)"/>
<use xlink:href="#stroke0_20_3143" transform="translate(165.752 18.5894) scale(0.0177174) rotate(-47.4916)"/>
<use xlink:href="#stroke0_20_3143" transform="translate(172.923 19.0195) scale(0.0169087) rotate(154.295)"/>
<use xlink:href="#stroke0_20_3143" transform="translate(173.696 18.729) scale(0.0174925) rotate(161.479)"/>
<use xlink:href="#stroke0_20_3143" transform="translate(169.016 18.281) scale(0.0170321) rotate(-82.1014)"/>
<use xlink:href="#stroke0_20_3143" transform="translate(170.442 12.9143) scale(0.0185272) rotate(6.08392)"/>
<use xlink:href="#stroke0_20_3143" transform="translate(171.688 17.7477) scale(0.0172428) rotate(-104.804)"/>
<use xlink:href="#stroke0_20_3143" transform="translate(174.066 11.0852) scale(0.0171237) rotate(38.7915)"/>
<use xlink:href="#stroke0_20_3143" transform="translate(177.88 15.8629) scale(0.0185587) rotate(172.933)"/>
<use xlink:href="#stroke0_20_3143" transform="translate(175.275 9.58175) scale(0.0180911) rotate(28.3282)"/>
<use xlink:href="#stroke0_20_3143" transform="translate(180.458 11.9214) scale(0.0180551) rotate(128.296)"/>
<use xlink:href="#stroke0_20_3143" transform="translate(180.271 9.32723) scale(0.0168813) rotate(89.2559)"/>
<use xlink:href="#stroke0_20_3143" transform="translate(176.921 13.8411) scale(0.0189642) rotate(-103.601)"/>
<use xlink:href="#stroke0_20_3143" transform="translate(182.929 11.6166) scale(0.0177132) rotate(157.558)"/>
<use xlink:href="#stroke0_20_3143" transform="translate(177.979 11.2328) scale(0.0174269) rotate(-75.872)"/>
<use xlink:href="#stroke0_20_3143" transform="translate(185.39 8.09059) scale(0.0192051) rotate(116.596)"/>
<use xlink:href="#stroke0_20_3143" transform="translate(180.808 11.0342) scale(0.0171955) rotate(-95.5326)"/>
<use xlink:href="#stroke0_20_3143" transform="translate(184.408 11.454) scale(0.0175358) rotate(-144.365)"/>
<use xlink:href="#stroke0_20_3143" transform="translate(184.901 4.32655) scale(0.0181744) rotate(40.1836)"/>
<use xlink:href="#stroke0_20_3143" transform="translate(182.659 6.54206) scale(0.0192138) rotate(-34.1091)"/>
<use xlink:href="#stroke0_20_3143" transform="translate(188.055 10.3992) scale(0.0183746) rotate(-148.941)"/>
<use xlink:href="#stroke0_20_3143" transform="translate(191.526 5.51387) scale(0.0174265) rotate(111.858)"/>
<use xlink:href="#stroke0_20_3143" transform="translate(191.442 3.49889) scale(0.0183482) rotate(75.5793)"/>
<use xlink:href="#stroke0_20_3143" transform="translate(191.391 2.9642) scale(0.0173504) rotate(55.2522)"/>
<use xlink:href="#stroke0_20_3143" transform="translate(194.479 4.10215) scale(0.0173159) rotate(98.4628)"/>
<use xlink:href="#stroke0_20_3143" transform="translate(196.081 6.62093) scale(0.0175436) rotate(147.952)"/>
<use xlink:href="#stroke0_20_3143" transform="translate(195.007 8.8394) scale(0.0180121) rotate(-154.183)"/>
<use xlink:href="#stroke0_20_3143" transform="translate(191.673 5.95263) scale(0.0187805) rotate(-55.543)"/>
<use xlink:href="#stroke0_20_3143" transform="translate(199.911 5.65539) scale(0.0187763) rotate(138.497)"/>
<use xlink:href="#stroke0_20_3143" transform="translate(198.597 2.18176) scale(0.0169888) rotate(62.343)"/>
<use xlink:href="#stroke0_20_3143" transform="translate(201.064 2.52276) scale(0.0187346) rotate(85.4147)"/>
<use xlink:href="#stroke0_20_3143" transform="translate(198.239 7.95997) scale(0.0174633) rotate(-108.296)"/>
<use xlink:href="#stroke0_20_3143" transform="translate(197.826 6.566) scale(0.0186069) rotate(-72.9773)"/>
<use xlink:href="#stroke0_20_3143" transform="translate(205.25 3.14599) scale(0.0189722) rotate(101.322)"/>
<use xlink:href="#stroke0_20_3143" transform="translate(206.776 5.25782) scale(0.0180075) rotate(136.768)"/>
<use xlink:href="#stroke0_20_3143" transform="translate(207.467 3.15325) scale(0.0184126) rotate(99.7711)"/>
<use xlink:href="#stroke0_20_3143" transform="translate(207.026 1.94513) scale(0.018057) rotate(65.3053)"/>
<use xlink:href="#stroke0_20_3143" transform="translate(209.973 6.58358) scale(0.0180224) rotate(157.54)"/>
<use xlink:href="#stroke0_20_3143" transform="translate(206.563 1.99936) scale(0.0189447) rotate(18.0519)"/>
<use xlink:href="#stroke0_20_3143" transform="translate(205.745 4.91767) scale(0.0188121) rotate(-40.0642)"/>
<use xlink:href="#stroke0_20_3143" transform="translate(207.987 7.70425) scale(0.0174941) rotate(-89.4516)"/>
<use xlink:href="#stroke0_20_3143" transform="translate(208.117 5.19397) scale(0.0184606) rotate(-40.0825)"/>
<use xlink:href="#stroke0_20_3143" transform="translate(211.275 8.70482) scale(0.0172355) rotate(-110.957)"/>
<use xlink:href="#stroke0_20_3143" transform="translate(213.911 9.30676) scale(0.0177256) rotate(-138.707)"/>
<use xlink:href="#stroke0_20_3143" transform="translate(211.676 6.10695) scale(0.0171938) rotate(-46.3052)"/>
<use xlink:href="#stroke0_20_3143" transform="translate(215.344 2.88199) scale(0.0188919) rotate(31.2546)"/>
<use xlink:href="#stroke0_20_3143" transform="translate(215.841 3.52294) scale(0.0179815) rotate(18.9109)"/>
<use xlink:href="#stroke0_20_3143" transform="translate(221.745 6.77474) scale(0.0180129) rotate(130.843)"/>
<use xlink:href="#stroke0_20_3143" transform="translate(222.694 8.69041) scale(0.0187435) rotate(157.92)"/>
<use xlink:href="#stroke0_20_3143" transform="translate(217.211 6.76903) scale(0.0185867) rotate(-34.8349)"/>
<use xlink:href="#stroke0_20_3143" transform="translate(223.921 5.52402) scale(0.0170147) rotate(86.1076)"/>
<use xlink:href="#stroke0_20_3143" transform="translate(221.844 4.80524) scale(0.0191723) rotate(27.594)"/>
<use xlink:href="#stroke0_20_3143" transform="translate(225.571 6.0282) scale(0.017301) rotate(74.5261)"/>
<use xlink:href="#stroke0_20_3143" transform="translate(225.9 6.13805) scale(0.0179203) rotate(61.0051)"/>
<use xlink:href="#stroke0_20_3143" transform="translate(229.27 9.57314) scale(0.0183076) rotate(126.447)"/>
<use xlink:href="#stroke0_20_3143" transform="translate(230.315 11.4421) scale(0.0189495) rotate(146.096)"/>
<use xlink:href="#stroke0_20_3143" transform="translate(224.606 10.6895) scale(0.0171003) rotate(-36.3005)"/>
<use xlink:href="#stroke0_20_3143" transform="translate(228.814 8.57716) scale(0.0179956) rotate(45.2086)"/>
<use xlink:href="#stroke0_20_3143" transform="translate(232.497 10.8071) scale(0.0183596) rotate(99.8233)"/>
<use xlink:href="#stroke0_20_3143" transform="translate(227.662 11.2502) scale(0.0191639) rotate(-9.41622)"/>
<use xlink:href="#stroke0_20_3143" transform="translate(228.536 15.8988) scale(0.0176517) rotate(-77.2176)"/>
<use xlink:href="#stroke0_20_3143" transform="translate(235.811 15.2031) scale(0.0186257) rotate(136.226)"/>
<use xlink:href="#stroke0_20_3143" transform="translate(232.333 12.2924) scale(0.0191766) rotate(28.8811)"/>
<use xlink:href="#stroke0_20_3143" transform="translate(237.344 16.3958) scale(0.0173544) rotate(129.371)"/>
<use xlink:href="#stroke0_20_3143" transform="translate(231.863 19.2092) scale(0.0188868) rotate(-77.9111)"/>
<use xlink:href="#stroke0_20_3143" transform="translate(233.637 15.679) scale(0.0174462) rotate(2.24424)"/>
<use xlink:href="#stroke0_20_3143" transform="translate(236.803 22.2163) scale(0.0173513) rotate(-140.772)"/>
<use xlink:href="#stroke0_20_3143" transform="translate(238.919 16.4269) scale(0.0192478) rotate(66.6371)"/>
<use xlink:href="#stroke0_20_3143" transform="translate(241.741 20.2125) scale(0.0181851) rotate(126.739)"/>
<use xlink:href="#stroke0_20_3143" transform="translate(235.57 21.6513) scale(0.0192718) rotate(-51.0576)"/>
<use xlink:href="#stroke0_20_3143" transform="translate(241.867 19.2311) scale(0.018483) rotate(73.5319)"/>
<use xlink:href="#stroke0_20_3143" transform="translate(241.106 26.5064) scale(0.0183714) rotate(-139.701)"/>
<use xlink:href="#stroke0_20_3143" transform="translate(238.926 21.8304) scale(0.0187018) rotate(-12.3587)"/>
<use xlink:href="#stroke0_20_3143" transform="translate(242.757 21.0766) scale(0.0189775) rotate(43.3721)"/>
<use xlink:href="#stroke0_20_3143" transform="translate(246.97 24.4284) scale(0.0185489) rotate(115.662)"/>
<use xlink:href="#stroke0_20_3143" transform="translate(247.966 25.0358) scale(0.0192852) rotate(113.162)"/>
<use xlink:href="#stroke0_20_3143" transform="translate(248.915 26.9642) scale(0.0183156) rotate(131.466)"/>
<use xlink:href="#stroke0_20_3143" transform="translate(249.595 28.2879) scale(0.0174483) rotate(141.731)"/>
<use xlink:href="#stroke0_20_3143" transform="translate(248.151 31.5488) scale(0.0170351) rotate(-154.266)"/>
<use xlink:href="#stroke0_20_3143" transform="translate(250.305 31.7351) scale(0.0179626) rotate(-177.837)"/>
<use xlink:href="#stroke0_20_3143" transform="translate(246.385 27.9834) scale(0.0169056) rotate(-11.8328)"/>
<use xlink:href="#stroke0_20_3143" transform="translate(252.991 31.6117) scale(0.017482) rotate(153.063)"/>
<use xlink:href="#stroke0_20_3143" transform="translate(248.732 33.6383) scale(0.0174254) rotate(-97.7726)"/>
<use xlink:href="#stroke0_20_3143" transform="translate(248.683 30.0268) scale(0.0188003) rotate(-18.7465)"/>
<use xlink:href="#stroke0_20_3143" transform="translate(250.508 29.933) scale(0.0175203) rotate(-1.349)"/>
<use xlink:href="#stroke0_20_3143" transform="translate(256.608 30.8537) scale(0.0181307) rotate(97.3232)"/>
<use xlink:href="#stroke0_20_3143" transform="translate(253.39 30.3014) scale(0.0179055) rotate(16.9756)"/>
<use xlink:href="#stroke0_20_3143" transform="translate(252.564 32.5558) scale(0.0191884) rotate(-26.9756)"/>
<use xlink:href="#stroke0_20_3143" transform="translate(254.883 36.9597) scale(0.0187433) rotate(-98.1074)"/>
<use xlink:href="#stroke0_20_3143" transform="translate(255.624 36.6251) scale(0.01775) rotate(-85.9154)"/>
<use xlink:href="#stroke0_20_3143" transform="translate(260.748 38.1199) scale(0.0191509) rotate(-159.036)"/>
<use xlink:href="#stroke0_20_3143" transform="translate(263.66 33.4027) scale(0.0181127) rotate(106.744)"/>
<use xlink:href="#stroke0_20_3143" transform="translate(265.226 34.2628) scale(0.018673) rotate(121.655)"/>
<use xlink:href="#stroke0_20_3143" transform="translate(263.696 31.5185) scale(0.0182229) rotate(55.4008)"/>
<use xlink:href="#stroke0_20_3143" transform="translate(260.904 35.748) scale(0.0177646) rotate(-65.3258)"/>
<use xlink:href="#stroke0_20_3143" transform="translate(263.446 37.3634) scale(0.0181455) rotate(-106.27)"/>
<use xlink:href="#stroke0_20_3143" transform="translate(262.86 33.5893) scale(0.0184179) rotate(-39.7881)"/>
<use xlink:href="#stroke0_20_3143" transform="translate(263.975 33.3263) scale(0.0181092) rotate(-43.4284)"/>
<use xlink:href="#stroke0_20_3143" transform="translate(268.426 36.3502) scale(0.017682) rotate(-137.547)"/>
<use xlink:href="#stroke0_20_3143" transform="translate(271.969 34.521) scale(0.0176277) rotate(171.73)"/>
<use xlink:href="#stroke0_20_3143" transform="translate(269.547 28.7059) scale(0.0169706) rotate(29.159)"/>
<use xlink:href="#stroke0_20_3143" transform="translate(273.236 33.9706) scale(0.0183072) rotate(-172.733)"/>
<use xlink:href="#stroke0_20_3143" transform="translate(271.256 27.1718) scale(0.0179384) rotate(27.6943)"/>
<use xlink:href="#stroke0_20_3143" transform="translate(276.169 31.3466) scale(0.0187487) rotate(160.849)"/>
<use xlink:href="#stroke0_20_3143" transform="translate(277.382 29.8102) scale(0.0188766) rotate(148.031)"/>
<use xlink:href="#stroke0_20_3143" transform="translate(277.595 26.1194) scale(0.0180183) rotate(98.1063)"/>
<use xlink:href="#stroke0_20_3143" transform="translate(272.426 25.8001) scale(0.0185566) rotate(-23.1414)"/>
<use xlink:href="#stroke0_20_3143" transform="translate(273.068 26.4057) scale(0.0178131) rotate(-47.5845)"/>
<use xlink:href="#stroke0_20_3143" transform="translate(279.916 23.0246) scale(0.0193147) rotate(90.0961)"/>
<use xlink:href="#stroke0_20_3143" transform="translate(279.843 27.253) scale(0.0169559) rotate(-172.108)"/>
<use xlink:href="#stroke0_20_3143" transform="translate(281.379 25.5669) scale(0.0169024) rotate(166.363)"/>
<use xlink:href="#stroke0_20_3143" transform="translate(282.794 21.7729) scale(0.0187183) rotate(113.765)"/>
<use xlink:href="#stroke0_20_3143" transform="translate(281.175 18.8492) scale(0.0176143) rotate(59.9666)"/>
<use xlink:href="#stroke0_20_3143" transform="translate(283.468 18.5216) scale(0.0191617) rotate(87.1313)"/>
<use xlink:href="#stroke0_20_3143" transform="translate(278.443 20.7388) scale(0.0173569) rotate(-56.6329)"/>
<use xlink:href="#stroke0_20_3143" transform="translate(280.075 16.8743) scale(0.0177937) rotate(-0.499487)"/>
<use xlink:href="#stroke0_20_3143" transform="translate(281.644 21.5149) scale(0.0181248) rotate(-111.915)"/>
<use xlink:href="#stroke0_20_3143" transform="translate(281.934 14.5888) scale(0.0184418) rotate(9.6653)"/>
<use xlink:href="#stroke0_20_3143" transform="translate(282.539 19.2781) scale(0.017803) rotate(-99.9005)"/>
<use xlink:href="#stroke0_20_3143" transform="translate(285.386 12.3699) scale(0.0177121) rotate(44.1637)"/>
<use xlink:href="#stroke0_20_3143" transform="translate(288.601 12.7117) scale(0.017547) rotate(92.9104)"/>
<use xlink:href="#stroke0_20_3143" transform="translate(283.65 15.0904) scale(0.0177348) rotate(-66.2993)"/>
<use xlink:href="#stroke0_20_3143" transform="translate(288.411 9.83384) scale(0.0181407) rotate(56.7573)"/>
<use xlink:href="#stroke0_20_3143" transform="translate(289.964 15.2717) scale(0.0176497) rotate(-165.457)"/>
<use xlink:href="#stroke0_20_3143" transform="translate(289.83 8.10505) scale(0.0183323) rotate(53.046)"/>
<use xlink:href="#stroke0_20_3143" transform="translate(288.127 13.556) scale(0.018255) rotate(-102.856)"/>
<use xlink:href="#stroke0_20_3143" transform="translate(293.903 7.87401) scale(0.0190503) rotate(98.1742)"/>
<use xlink:href="#stroke0_20_3143" transform="translate(294.055 11.7652) scale(0.0181299) rotate(-176.974)"/>
<use xlink:href="#stroke0_20_3143" transform="translate(295.356 10.4868) scale(0.0176161) rotate(171.511)"/>
<use xlink:href="#stroke0_20_3143" transform="translate(293.122 10.9144) scale(0.0170483) rotate(-128.044)"/>
<use xlink:href="#stroke0_20_3143" transform="translate(295.023 3.65828) scale(0.0182461) rotate(50.8562)"/>
<use xlink:href="#stroke0_20_3143" transform="translate(293.101 3.69337) scale(0.0192315) rotate(0.584019)"/>
<use xlink:href="#stroke0_20_3143" transform="translate(298.249 3.00129) scale(0.0171807) rotate(74.9752)"/>
<use xlink:href="#stroke0_20_3143" transform="translate(300.352 2.95577) scale(0.0190386) rotate(95.1692)"/>
<use xlink:href="#stroke0_20_3143" transform="translate(296.032 7.09438) scale(0.0190988) rotate(-92.129)"/>
<use xlink:href="#stroke0_20_3143" transform="translate(303.008 5.22853) scale(0.0189044) rotate(153.316)"/>
<use xlink:href="#stroke0_20_3143" transform="translate(302.646 0.433294) scale(0.018904) rotate(74.9891)"/>
<use xlink:href="#stroke0_20_3143" transform="translate(298.911 4.8314) scale(0.0184344) rotate(-79.5477)"/>
<use xlink:href="#stroke0_20_3143" transform="translate(299.715 1.86272) scale(0.0173011) rotate(-35.2856)"/>
<use xlink:href="#stroke0_20_3143" transform="translate(300.503 2.96438) scale(0.0190313) rotate(-60.533)"/>
<use xlink:href="#stroke0_20_3143" transform="translate(306.384 4.70412) scale(0.0169825) rotate(-160.716)"/>
<use xlink:href="#stroke0_20_3143" transform="translate(309.591 1.12175) scale(0.0181306) rotate(127.507)"/>
<use xlink:href="#stroke0_20_3143" transform="translate(310.371 3.13803) scale(0.0192554) rotate(166.297)"/>
<use xlink:href="#stroke0_20_3143" transform="translate(306.325 3.58402) scale(0.0185346) rotate(-98.262)"/>
<use xlink:href="#stroke0_20_3143" transform="translate(311.867 3.27541) scale(0.0181733) rotate(-176.765)"/>
<use xlink:href="#stroke0_20_3143" transform="translate(312.018 -2.67677) scale(0.0177086) rotate(63.9698)"/>
<use xlink:href="#stroke0_20_3143" transform="translate(310.267 -2.66639) scale(0.0180088) rotate(13.1893)"/>
<use xlink:href="#stroke0_20_3143" transform="translate(313.34 -3.0845) scale(0.0172891) rotate(47.4633)"/>
<use xlink:href="#stroke0_20_3143" transform="translate(311.212 1.62546) scale(0.0178032) rotate(-74.4501)"/>
<use xlink:href="#stroke0_20_3143" transform="translate(316.714 3.08501) scale(0.0177505) rotate(-161.358)"/>
<use xlink:href="#stroke0_20_3143" transform="translate(319.067 -2.42072) scale(0.0186552) rotate(89.4146)"/>
<use xlink:href="#stroke0_20_3143" transform="translate(320.181 -2.61922) scale(0.019059) rotate(85.9665)"/>
<use xlink:href="#stroke0_20_3143" transform="translate(321.197 2.52237) scale(0.0178717) rotate(-179.97)"/>
<use xlink:href="#stroke0_20_3143" transform="translate(323.37 1.72347) scale(0.019313) rotate(159)"/>
<use xlink:href="#stroke0_20_3143" transform="translate(324.477 1.23175) scale(0.0177473) rotate(150.517)"/>
<use xlink:href="#stroke0_20_3143" transform="translate(319.636 2.07258) scale(0.017282) rotate(-79.358)"/>
<use xlink:href="#stroke0_20_3143" transform="translate(320.785 -1.34249) scale(0.0173026) rotate(-13.3668)"/>
<use xlink:href="#stroke0_20_3143" transform="translate(321.644 2.19868) scale(0.0177702) rotate(-74.7839)"/>
<use xlink:href="#stroke0_20_3143" transform="translate(323.564 3.29891) scale(0.0173672) rotate(-95.9429)"/>
<use xlink:href="#stroke0_20_3143" transform="translate(324.592 -1.41579) scale(0.0175941) rotate(0.544124)"/>
<use xlink:href="#stroke0_20_3143" transform="translate(331.205 1.93931) scale(0.017636) rotate(144.334)"/>
<use xlink:href="#stroke0_20_3143" transform="translate(332.463 1.35683) scale(0.0180761) rotate(129.919)"/>
<use xlink:href="#stroke0_20_3143" transform="translate(332.264 4.59032) scale(0.0183578) rotate(-173.925)"/>
<use xlink:href="#stroke0_20_3143" transform="translate(329.986 -0.855633) scale(0.0171568) rotate(18.9929)"/>
<use xlink:href="#stroke0_20_3143" transform="translate(333.097 5.91913) scale(0.0188738) rotate(-148.362)"/>
<use xlink:href="#stroke0_20_3143" transform="translate(330.158 3.81996) scale(0.0188664) rotate(-64.2642)"/>
<use xlink:href="#stroke0_20_3143" transform="translate(338.105 2.57226) scale(0.0182477) rotate(123.456)"/>
<use xlink:href="#stroke0_20_3143" transform="translate(335.596 6.77783) scale(0.017405) rotate(-133.828)"/>
<use xlink:href="#stroke0_20_3143" transform="translate(334.356 1.80681) scale(0.0170174) rotate(-7.45587)"/>
<use xlink:href="#stroke0_20_3143" transform="translate(334.596 4.00227) scale(0.0173812) rotate(-43.0406)"/>
<use xlink:href="#stroke0_20_3143" transform="translate(337.937 1.41453) scale(0.0178506) rotate(25.7351)"/>
<use xlink:href="#stroke0_20_3143" transform="translate(338.727 1.83909) scale(0.0183472) rotate(21.1353)"/>
<use xlink:href="#stroke0_20_3143" transform="translate(341.693 8.72474) scale(0.017439) rotate(-147.949)"/>
<use xlink:href="#stroke0_20_3143" transform="translate(344.049 2.98515) scale(0.0185842) rotate(75.6561)"/>
<use xlink:href="#stroke0_20_3143" transform="translate(343.991 9.54991) scale(0.0172584) rotate(-151.177)"/>
<use xlink:href="#stroke0_20_3143" transform="translate(341.106 5.21598) scale(0.0188292) rotate(-19.7102)"/>
<use xlink:href="#stroke0_20_3143" transform="translate(344.336 10.7218) scale(0.0186465) rotate(-120.219)"/>
<use xlink:href="#stroke0_20_3143" transform="translate(348.037 10.6139) scale(0.0170812) rotate(-167.648)"/>
<use xlink:href="#stroke0_20_3143" transform="translate(350.678 9.73955) scale(0.0187158) rotate(156.41)"/>
<use xlink:href="#stroke0_20_3143" transform="translate(349.055 5.29458) scale(0.0190612) rotate(51.1921)"/>
<use xlink:href="#stroke0_20_3143" transform="translate(352.951 8.26969) scale(0.0186313) rotate(114.229)"/>
<use xlink:href="#stroke0_20_3143" transform="translate(349.389 6.95821) scale(0.0169529) rotate(19.9229)"/>
<use xlink:href="#stroke0_20_3143" transform="translate(349.436 7.86072) scale(0.0178414) rotate(2.20859)"/>
<use xlink:href="#stroke0_20_3143" transform="translate(355.366 9.11088) scale(0.0174064) rotate(99.0047)"/>
<use xlink:href="#stroke0_20_3143" transform="translate(353.247 7.96949) scale(0.018739) rotate(36.1475)"/>
<use xlink:href="#stroke0_20_3143" transform="translate(357.139 14.1107) scale(0.0170835) rotate(173.019)"/>
<use xlink:href="#stroke0_20_3143" transform="translate(353.47 14.9575) scale(0.0171373) rotate(-95.0733)"/>
<use xlink:href="#stroke0_20_3143" transform="translate(359.707 14.3393) scale(0.0176374) rotate(154.786)"/>
<use xlink:href="#stroke0_20_3143" transform="translate(356.942 10.1392) scale(0.0190574) rotate(31.5673)"/>
<use xlink:href="#stroke0_20_3143" transform="translate(356.964 17.0931) scale(0.0175664) rotate(-106.221)"/>
<use xlink:href="#stroke0_20_3143" transform="translate(362.977 14.4934) scale(0.0176781) rotate(127.43)"/>
<use xlink:href="#stroke0_20_3143" transform="translate(359.673 18.8753) scale(0.0191568) rotate(-121.021)"/>
<use xlink:href="#stroke0_20_3143" transform="translate(361.478 19.1743) scale(0.0169356) rotate(-133.531)"/>
<use xlink:href="#stroke0_20_3143" transform="translate(366.039 16.0359) scale(0.0181466) rotate(124.19)"/>
<use xlink:href="#stroke0_20_3143" transform="translate(364.425 13.8077) scale(0.0181359) rotate(55.8154)"/>
<use xlink:href="#stroke0_20_3143" transform="translate(366.544 20.7832) scale(0.0188464) rotate(-168.802)"/>
<use xlink:href="#stroke0_20_3143" transform="translate(362.269 19.174) scale(0.0187013) rotate(-60.2925)"/>
<use xlink:href="#stroke0_20_3143" transform="translate(369.886 18.7448) scale(0.01695) rotate(128.922)"/>
<use xlink:href="#stroke0_20_3143" transform="translate(367.116 16.2257) scale(0.0177821) rotate(33.7549)"/>
<use xlink:href="#stroke0_20_3143" transform="translate(369.038 16.909) scale(0.0171759) rotate(50.5376)"/>
<use xlink:href="#stroke0_20_3143" transform="translate(369.154 17.3955) scale(0.0176633) rotate(35.8565)"/>
<use xlink:href="#stroke0_20_3143" transform="translate(366.977 21.7006) scale(0.0191253) rotate(-53.1226)"/>
<use xlink:href="#stroke0_20_3143" transform="translate(372.047 25.2515) scale(0.0176984) rotate(-145.253)"/>
<use xlink:href="#stroke0_20_3143" transform="translate(374.64 20.0819) scale(0.0171087) rotate(83.7074)"/>
<use xlink:href="#stroke0_20_3143" transform="translate(375.18 19.9452) scale(0.0190464) rotate(70.3255)"/>
<use xlink:href="#stroke0_20_3143" transform="translate(374.382 27.0211) scale(0.0173438) rotate(-134.833)"/>
<use xlink:href="#stroke0_20_3143" transform="translate(374.398 21.138) scale(0.0178609) rotate(24.2832)"/>
<use xlink:href="#stroke0_20_3143" transform="translate(374.91 21.8618) scale(0.0183062) rotate(16.037)"/>
<use xlink:href="#stroke0_20_3143" transform="translate(379.461 22.9273) scale(0.0174868) rotate(80.336)"/>
<use xlink:href="#stroke0_20_3143" transform="translate(380.885 24.1327) scale(0.0168973) rotate(94.3557)"/>
<use xlink:href="#stroke0_20_3143" transform="translate(382.277 25.4555) scale(0.0169546) rotate(110.234)"/>
<use xlink:href="#stroke0_20_3143" transform="translate(381.444 30.2684) scale(0.0171422) rotate(-158.594)"/>
<use xlink:href="#stroke0_20_3143" transform="translate(378.526 29.6664) scale(0.0172108) rotate(-81.7683)"/>
<use xlink:href="#stroke0_20_3143" transform="translate(382.153 31.5753) scale(0.0169042) rotate(-137.335)"/>
<use xlink:href="#stroke0_20_3143" transform="translate(384.519 31.8309) scale(0.0170736) rotate(-163.524)"/>
<use xlink:href="#stroke0_20_3143" transform="translate(384.823 32.9933) scale(0.0188005) rotate(-149.309)"/>
<use xlink:href="#stroke0_20_3143" transform="translate(383.332 32.9543) scale(0.0176979) rotate(-105.437)"/>
<use xlink:href="#stroke0_20_3143" transform="translate(384.914 34.0725) scale(0.018958) rotate(-117.535)"/>
<use xlink:href="#stroke0_20_3143" transform="translate(389.408 33.7843) scale(0.0179036) rotate(-179.318)"/>
<use xlink:href="#stroke0_20_3143" transform="translate(385.496 29.467) scale(0.0190293) rotate(-5.47333)"/>
<use xlink:href="#stroke0_20_3143" transform="translate(392.883 32.173) scale(0.01923) rotate(128.521)"/>
<use xlink:href="#stroke0_20_3143" transform="translate(392.283 35.5118) scale(0.0170698) rotate(-175.65)"/>
<use xlink:href="#stroke0_20_3143" transform="translate(393.301 30.6925) scale(0.0183265) rotate(78.3995)"/>
<use xlink:href="#stroke0_20_3143" transform="translate(391.067 30.8783) scale(0.0179196) rotate(20.8638)"/>
<use xlink:href="#stroke0_20_3143" transform="translate(391.452 37.3271) scale(0.0181451) rotate(-102.762)"/>
<use xlink:href="#stroke0_20_3143" transform="translate(392.42 32.1363) scale(0.0184858) rotate(6.94522)"/>
<use xlink:href="#stroke0_20_3143" transform="translate(397.192 32.2031) scale(0.0190172) rotate(69.4266)"/>
<use xlink:href="#stroke0_20_3143" transform="translate(395.319 32.763) scale(0.017799) rotate(18.7754)"/>
<use xlink:href="#stroke0_20_3143" transform="translate(395.339 33.9656) scale(0.0174647) rotate(-4.32294)"/>
<use xlink:href="#stroke0_20_3143" transform="translate(402.44 35.8285) scale(0.0192629) rotate(121.008)"/>
<use xlink:href="#stroke0_20_3143" transform="translate(396.855 37.9588) scale(0.0176024) rotate(-65.4167)"/>
<use xlink:href="#stroke0_20_3143" transform="translate(403.94 35.7333) scale(0.0170351) rotate(105.416)"/>
<use xlink:href="#stroke0_20_3143" transform="translate(398.92 36.2423) scale(0.0185524) rotate(-26.1542)"/>
<use xlink:href="#stroke0_20_3143" transform="translate(404.529 41.0236) scale(0.0183512) rotate(-157.119)"/>
<use xlink:href="#stroke0_20_3143" transform="translate(401.536 36.1836) scale(0.0184345) rotate(-15.5776)"/>
<use xlink:href="#stroke0_20_3143" transform="translate(404.36 35.0987) scale(0.0178746) rotate(20.4138)"/>
<use xlink:href="#stroke0_20_3143" transform="translate(407.784 41.594) scale(0.0177192) rotate(-154.679)"/>
<use xlink:href="#stroke0_20_3143" transform="translate(406.248 41.5302) scale(0.0180184) rotate(-107.855)"/>
<use xlink:href="#stroke0_20_3143" transform="translate(408.701 35.5206) scale(0.0168939) rotate(36.9903)"/>
<use xlink:href="#stroke0_20_3143" transform="translate(413.157 37.1759) scale(0.0181256) rotate(104.457)"/>
<use xlink:href="#stroke0_20_3143" transform="translate(408.021 38.0841) scale(0.01787) rotate(-33.3306)"/>
<use xlink:href="#stroke0_20_3143" transform="translate(414.591 41.6286) scale(0.0181399) rotate(-175.788)"/>
<use xlink:href="#stroke0_20_3143" transform="translate(416.816 38.6082) scale(0.0172139) rotate(126.129)"/>
<use xlink:href="#stroke0_20_3143" transform="translate(417.084 36.8182) scale(0.0171494) rotate(90.498)"/>
<use xlink:href="#stroke0_20_3143" transform="translate(412.631 39.8532) scale(0.0173937) rotate(-62.4203)"/>
<use xlink:href="#stroke0_20_3143" transform="translate(418.479 41.7375) scale(0.0169411) rotate(-166.679)"/>
<use xlink:href="#stroke0_20_3143" transform="translate(420.935 40.3771) scale(0.0173949) rotate(159.655)"/>
<use xlink:href="#stroke0_20_3143" transform="translate(417.33 36.1532) scale(0.0169267) rotate(9.17794)"/>
<use xlink:href="#stroke0_20_3143" transform="translate(423.068 40.3513) scale(0.0174883) rotate(162.664)"/>
<use xlink:href="#stroke0_20_3143" transform="translate(417.783 38.2029) scale(0.0190843) rotate(-41.2848)"/>
<use xlink:href="#stroke0_20_3143" transform="translate(425.043 40.9762) scale(0.0188841) rotate(179.071)"/>
<use xlink:href="#stroke0_20_3143" transform="translate(421.775 40.7595) scale(0.0169332) rotate(-99.9136)"/>
<use xlink:href="#stroke0_20_3143" transform="translate(425.289 34.8557) scale(0.0169331) rotate(52.0244)"/>
<use xlink:href="#stroke0_20_3143" transform="translate(428.3 35.4175) scale(0.0179342) rotate(88.5653)"/>
<use xlink:href="#stroke0_20_3143" transform="translate(426.162 34.1826) scale(0.0182135) rotate(28.6627)"/>
<use xlink:href="#stroke0_20_3143" transform="translate(431.311 38.8548) scale(0.0188141) rotate(160.248)"/>
<use xlink:href="#stroke0_20_3143" transform="translate(427.388 33.9342) scale(0.0186746) rotate(9.76507)"/>
<use xlink:href="#stroke0_20_3143" transform="translate(431.236 39.7633) scale(0.0175795) rotate(-151.294)"/>
<use xlink:href="#stroke0_20_3143" transform="translate(430.06 39.2634) scale(0.0180476) rotate(-111.993)"/>
<use xlink:href="#stroke0_20_3143" transform="translate(429.368 35.6146) scale(0.0169569) rotate(-43.9377)"/>
<use xlink:href="#stroke0_20_3143" transform="translate(430.435 36.6665) scale(0.01816) rotate(-69.1012)"/>
<use xlink:href="#stroke0_20_3143" transform="translate(436.236 37.9087) scale(0.017746) rotate(-164.825)"/>
<use xlink:href="#stroke0_20_3143" transform="translate(433.223 32.3409) scale(0.0173702) rotate(-6.43565)"/>
<use xlink:href="#stroke0_20_3143" transform="translate(439.304 31.8539) scale(0.0177433) rotate(93.0875)"/>
<use xlink:href="#stroke0_20_3143" transform="translate(440.339 31.0974) scale(0.0185309) rotate(90.1221)"/>
<use xlink:href="#stroke0_20_3143" transform="translate(440.405 35.7692) scale(0.017328) rotate(-166.875)"/>
<use xlink:href="#stroke0_20_3143" transform="translate(437.768 29.362) scale(0.0191198) rotate(8.62179)"/>
<use xlink:href="#stroke0_20_3143" transform="translate(437.961 29.8019) scale(0.0182758) rotate(-13.2673)"/>
<use xlink:href="#stroke0_20_3143" transform="translate(445.134 30.3346) scale(0.0180654) rotate(119.927)"/>
<use xlink:href="#stroke0_20_3143" transform="translate(443.763 33.7192) scale(0.0181113) rotate(-154.02)"/>
<use xlink:href="#stroke0_20_3143" transform="translate(440.517 30.6696) scale(0.0174985) rotate(-62.7591)"/>
<use xlink:href="#stroke0_20_3143" transform="translate(442.157 26.8982) scale(0.0174134) rotate(-4.99671)"/>
<use xlink:href="#stroke0_20_3143" transform="translate(449.097 29.0508) scale(0.0192875) rotate(143.588)"/>
<use xlink:href="#stroke0_20_3143" transform="translate(449.123 29.8055) scale(0.0183945) rotate(172.39)"/>
<use xlink:href="#stroke0_20_3143" transform="translate(448.497 29.8892) scale(0.0173825) rotate(-158.475)"/>
<use xlink:href="#stroke0_20_3143" transform="translate(451.641 26.5747) scale(0.0187011) rotate(141.544)"/>
<use xlink:href="#stroke0_20_3143" transform="translate(445.74 25.964) scale(0.0176082) rotate(-60.0692)"/>
<use xlink:href="#stroke0_20_3143" transform="translate(450.827 27.5275) scale(0.0174357) rotate(-156.064)"/>
<use xlink:href="#stroke0_20_3143" transform="translate(450.429 27.0251) scale(0.0183394) rotate(-135.371)"/>
<use xlink:href="#stroke0_20_3143" transform="translate(451.61 19.5267) scale(0.0169417) rotate(48.8061)"/>
<use xlink:href="#stroke0_20_3143" transform="translate(451.602 25.3107) scale(0.0185586) rotate(-130.573)"/>
<use xlink:href="#stroke0_20_3143" transform="translate(449.488 20.1565) scale(0.0175613) rotate(-33.9346)"/>
<use xlink:href="#stroke0_20_3143" transform="translate(456.26 17.7374) scale(0.0191347) rotate(94.729)"/>
<use xlink:href="#stroke0_20_3143" transform="translate(453.988 15.313) scale(0.019298) rotate(40.7023)"/>
<use xlink:href="#stroke0_20_3143" transform="translate(454.795 14.772) scale(0.0170069) rotate(43.3854)"/>
<use xlink:href="#stroke0_20_3143" transform="translate(452.09 18.482) scale(0.0191164) rotate(-71.4714)"/>
<use xlink:href="#stroke0_20_3143" transform="translate(459.562 15.4048) scale(0.0190823) rotate(124.272)"/>
<use xlink:href="#stroke0_20_3143" transform="translate(453.586 16.6383) scale(0.0183754) rotate(-77.4925)"/>
<use xlink:href="#stroke0_20_3143" transform="translate(453.583 13.6823) scale(0.0187879) rotate(-44.778)"/>
<use xlink:href="#stroke0_20_3143" transform="translate(455.465 10.3348) scale(0.0173355) rotate(1.30377)"/>
<use xlink:href="#stroke0_20_3143" transform="translate(460.949 10.3308) scale(0.0169545) rotate(105.869)"/>
<use xlink:href="#stroke0_20_3143" transform="translate(455.487 12.6812) scale(0.0192752) rotate(-79.8005)"/>
<use xlink:href="#stroke0_20_3143" transform="translate(456.444 11.7721) scale(0.0177232) rotate(-87.4422)"/>
<defs>
<g id="stroke0_20_3143" data-figma-scatter="f0.25_w0_aj180_sj0.070000000298023224_r0_s0_sw5">
<path d="M161.622 271.62C162.801 270.44 165.001 270.908 165.598 272.466C166.28 274.243 164.308 276.953 162.333 276.953C160.932 276.952 160.386 272.855 161.622 271.62ZM125.347 271.526C126.214 268.071 129.955 267.913 129.955 271.331C129.955 274.319 127.339 276.737 125.786 275.184C125.188 274.586 124.991 272.944 125.347 271.526ZM90.9548 269.953C92.4998 269.953 93.222 272.086 92.068 273.24C90.688 274.62 88.3711 272.708 89.4011 271.04C89.771 270.442 90.4698 269.953 90.9548 269.953ZM141.512 256.176C145.165 250.962 153.033 256.131 149.547 261.453C147.571 264.469 144.663 264.661 141.955 261.953C139.547 259.545 139.508 259.036 141.512 256.176ZM73.2048 251.23C75.5376 250.164 78.9543 251.195 78.9548 252.965C78.9548 254.503 74.0936 257.221 72.4626 256.595C70.1919 255.723 70.6521 252.397 73.2048 251.23ZM179.586 250.7C181.676 246.659 184.455 247.382 184.455 251.967C184.455 254.88 184.063 255.508 182.068 255.79C178.812 256.251 177.794 254.165 179.586 250.7ZM110.955 251.953C112.5 251.953 113.222 254.086 112.068 255.24C110.688 256.62 108.371 254.708 109.401 253.04C109.771 252.442 110.47 251.953 110.955 251.953ZM125.484 235.308C127.968 233.492 129.882 233.6 130.649 235.599C131.313 237.329 128.652 239.953 126.232 239.953C123.969 239.953 123.459 236.79 125.484 235.308ZM56.4548 232.953C58.3068 232.953 60.1711 235.593 59.7741 237.655C59.5331 238.905 58.5208 239.453 56.4548 239.453C53.15 239.453 51.913 236.914 53.9948 234.405C54.6577 233.606 55.7648 232.953 56.4548 232.953ZM160.318 235.45C161.227 233.081 165.455 233.896 165.455 236.439C165.455 238.645 162.346 239.744 160.716 238.114C160.151 237.549 159.972 236.351 160.318 235.45ZM196.198 234.11C197.852 232.456 202.454 233.054 202.455 234.923C202.455 236.69 198.218 238.991 196.312 238.261C194.617 237.61 194.566 235.742 196.198 234.11ZM90.9548 234.953C91.5047 234.953 91.9547 235.403 91.9548 235.953C91.9548 236.503 91.5048 236.953 90.9548 236.953C90.4049 236.953 89.9548 236.503 89.9548 235.953C89.9548 235.403 90.4049 234.953 90.9548 234.953ZM71.5514 214.259C74.027 212.449 74.6796 212.586 77.6345 215.541C81.1173 219.024 78.0602 223.076 73.2272 221.384C69.8362 220.196 68.8974 216.2 71.5514 214.259ZM34.9665 215.44C37.4415 212.458 42.9548 214.246 42.9548 218.031C42.9548 220.921 40.2601 222.413 37.3972 221.109C34.3162 219.705 33.3325 217.409 34.9665 215.44ZM179.159 214.523C181.95 212.567 185.454 214.484 185.455 217.966C185.455 221.094 183.104 222.358 179.705 221.057C176.335 219.766 176.077 216.681 179.159 214.523ZM214.155 215.153C216.556 212.752 221.955 214.69 221.955 217.953C221.955 220.669 218.715 222.192 215.52 220.978C212.789 219.94 212.14 217.168 214.155 215.153ZM107.319 217.446C108.12 215.36 111.324 215.917 111.767 218.219C112.165 220.284 109.278 221.677 107.755 220.153C107.169 219.567 106.973 218.349 107.319 217.446ZM143.431 216.992C144.483 215.289 148.382 216.176 148.769 218.206C148.952 219.17 148.36 220.245 147.451 220.594C145.466 221.355 142.421 218.627 143.431 216.992ZM123.155 197.153C125.911 194.397 132.955 197.004 132.955 200.779C132.955 203.022 129.938 205.953 127.629 205.953C123.218 205.953 120.231 200.077 123.155 197.153ZM231.155 197.153C233.347 194.961 237.885 195.705 239.141 198.463C240.423 201.275 237.199 205.953 233.981 205.953C230.36 205.953 228.414 199.894 231.155 197.153ZM53.0827 197.007C60.5555 193.946 64.7518 201.175 57.5075 204.629C53.4156 206.581 52.3072 205.961 51.3513 201.185C50.8033 198.446 51.0548 197.838 53.0827 197.007ZM196.205 196.962C197.443 196.453 199.58 196.13 200.955 196.244C205.799 196.649 204.127 203.891 198.873 205.265C194.383 206.438 191.907 198.732 196.205 196.962ZM160.564 197.487C163.37 194.681 166.955 196.37 166.955 200.498C166.955 203.092 163.864 206.133 162.245 205.132C159.905 203.686 158.907 199.144 160.564 197.487ZM88.5593 199.108C90.4402 196.423 92.1249 196.379 94.4548 198.953C96.2018 200.883 96.2018 201.023 94.4548 202.953C90.7188 207.081 85.4033 203.614 88.5593 199.108ZM18.2048 196.615C21.6617 195.22 24.3307 197.341 23.7819 201.046C23.2719 204.483 20.1722 205.903 18.3962 203.513C16.6233 201.125 16.517 197.296 18.2048 196.615ZM177.574 178.242C182.074 174.952 188.12 178.726 186.369 183.733C185.322 186.727 180.908 187.989 178.493 185.984C176.118 184.014 175.604 179.682 177.574 178.242ZM213.622 178.62C214.727 177.515 219.471 177.87 220.755 179.153C222.641 181.039 222.168 184.768 219.888 185.989C215.974 188.084 210.544 181.697 213.622 178.62ZM72.0075 181.391C73.1314 180.037 73.4588 180.028 74.7555 181.325C76.4955 183.065 75.6838 185.953 73.4548 185.953C71.31 185.953 70.4556 183.26 72.0075 181.391ZM106.155 179.153C107.61 177.698 109.02 177.648 112.39 178.929C116.93 180.655 115.094 185.953 109.955 185.953C105.588 185.953 103.354 181.954 106.155 179.153ZM143.339 180.395C144.582 177.156 149.462 180.083 148.774 183.655C148.301 186.112 143.609 186.104 143.134 183.645C142.943 182.651 143.035 181.188 143.339 180.395ZM35.3386 180.395C36.0985 178.414 40.8669 178.56 41.6462 180.589C42.5552 182.958 40.613 185.453 37.86 185.453C35.4112 185.453 34.2738 183.17 35.3386 180.395ZM249.136 180.234C249.767 179.474 251.447 178.987 252.869 179.152C256.507 179.575 256.625 184.287 253.011 184.798C249.914 185.235 247.422 182.3 249.136 180.234ZM1.62176 179.62C2.75172 178.489 3.84231 178.873 4.85028 180.757C6.07525 183.045 4.65825 185.437 2.55633 184.63C0.953362 184.015 0.367857 180.874 1.62176 179.62ZM195.155 161.153C199.2 157.108 205.563 162.129 203.137 167.453C200.971 172.208 193.955 170.297 193.955 164.953C193.955 163.523 194.495 161.813 195.155 161.153ZM122.99 161.888C125.209 157.743 133.337 161.845 132.76 166.819C132.498 169.085 131.921 169.497 128.635 169.768C122.714 170.255 120.308 166.899 122.99 161.888ZM159.2 162.108C160.917 160.391 166.018 161.077 167.349 163.203C168.87 165.631 167.004 168.364 163.544 168.775C158.898 169.328 156.169 165.139 159.2 162.108ZM17.8679 163.847C20.8558 161.398 23.3531 161.759 23.7731 164.704C24.2421 167.99 19.5737 170.013 17.1677 167.566C15.5488 165.919 15.5872 165.716 17.8679 163.847ZM53.3181 164.45C54.2271 162.081 58.4548 162.896 58.4548 165.439C58.4546 167.645 55.3465 168.744 53.7165 167.114C53.1515 166.549 52.972 165.351 53.3181 164.45ZM90.4011 165.04C91.191 163.762 92.6307 163.62 93.3298 164.751C94.2917 166.307 92.1385 168.536 90.8845 167.282C90.2495 166.647 90.0321 165.638 90.4011 165.04ZM233.455 164.953C233.939 164.17 234.514 164.112 235.181 164.779C235.731 165.329 235.854 166.307 235.455 166.953C234.971 167.736 234.396 167.794 233.729 167.127C233.179 166.577 233.056 165.599 233.455 164.953ZM72.155 143.153C74.201 141.107 75.9215 141.814 77.6335 145.405C79.4463 149.206 78.3548 151.953 75.0329 151.953C71.365 151.953 69.3911 145.917 72.155 143.153ZM140.99 143.888C143.209 139.743 151.337 143.845 150.76 148.819C150.498 151.085 149.921 151.497 146.635 151.768C140.714 152.255 138.308 148.899 140.99 143.888ZM214.371 144.31C215.315 141.85 219.296 143.115 220.383 146.22C221.148 148.402 220.991 149.346 219.635 150.702C216.554 153.783 212.585 148.965 214.371 144.31ZM104.622 142.62C105.751 141.49 112.484 141.883 113.755 143.153C116.971 146.369 114.013 150.953 108.721 150.953C104.846 150.953 102.025 145.217 104.622 142.62ZM248.622 142.62C251.659 139.582 258.199 144.269 256.629 148.359C255.819 150.469 251.281 151.469 249.442 149.942C247.938 148.694 247.395 143.847 248.622 142.62ZM35.155 143.153C36.8479 141.46 39.9777 141.664 42.1257 143.608C44.6817 145.921 44.4038 148.791 41.4958 150.116C36.8629 152.227 31.7242 146.584 35.155 143.153ZM178.001 143.398C180.63 140.23 185.955 142.327 185.955 146.531C185.955 149.786 183.572 151.325 180.239 150.22C177.156 149.198 176.032 145.771 178.001 143.398ZM1.18426 144.124C2.95012 142.358 5.40436 143.125 5.75262 145.551C6.10859 148.031 3.58934 150.41 1.46844 149.597C-0.35556 148.897 -0.51474 145.823 1.18426 144.124ZM125.522 126.879C128.986 123.051 132.286 125.737 130.077 130.585C129.266 132.364 128.29 132.997 126.706 132.771C123.867 132.366 123.266 129.372 125.522 126.879ZM90.9548 125.953C92.4118 125.953 94.1733 128.943 93.5983 130.44C93.2793 131.272 92.0897 131.953 90.9548 131.953C88.4109 131.953 87.3045 129.442 88.9665 127.44C89.6443 126.623 90.5397 125.953 90.9548 125.953ZM231.291 128.52C232.202 126.145 235.955 126.518 235.955 128.984C235.955 131.343 233.31 132.708 231.755 131.153C231.169 130.567 230.96 129.382 231.291 128.52ZM53.3386 125.395C54.5816 122.156 59.4621 125.083 58.7741 128.655C58.3011 131.112 53.6088 131.104 53.1345 128.645C52.9435 127.651 53.0347 126.187 53.3386 125.395ZM196.339 125.395C197.582 122.156 202.462 125.083 201.774 128.655C201.301 131.112 196.609 131.104 196.134 128.645C195.943 127.651 196.035 126.187 196.339 125.395ZM18.7048 123.033C21.1938 121.583 21.6583 121.691 23.3513 124.108C26.093 128.023 21.5169 132.115 18.155 128.753C16.4142 127.012 16.684 124.21 18.7048 123.033ZM161.551 123.259C163.914 121.531 164.32 121.594 166.508 124.013C168.958 126.719 167.37 129.453 163.346 129.453C159.801 129.453 158.626 125.398 161.551 123.259ZM176.792 108.412C178.282 105.142 183.179 105.008 185.398 108.176C187.404 111.039 187.359 112.233 185.143 114.97C181.634 119.302 174.413 113.633 176.792 108.412ZM35.1979 107.11C38.6209 103.687 45.9262 109.585 43.3542 113.694C42.0142 115.835 37.3673 116.54 35.3952 114.903C33.6272 113.436 33.51 108.798 35.1979 107.11ZM106.155 108.153C109.274 105.034 116.569 109.157 114.312 112.763C113.008 114.846 108.341 115.518 106.395 113.903C104.642 112.449 104.531 109.777 106.155 108.153ZM248.885 109.537C251.5 106.388 256.541 108.671 255.774 112.655C255.536 113.889 254.525 114.453 252.55 114.453C248.965 114.453 246.996 111.813 248.885 109.537ZM72.7048 108.014C75.4777 106.366 78.4171 107.183 78.7741 109.701C79.1151 112.099 74.9529 114.55 72.2829 113.525C70.3741 112.793 70.6471 109.236 72.7048 108.014ZM215.577 108.24C217.848 106.579 219.901 106.913 221.325 109.175C222.736 111.415 221.245 112.962 217.404 113.243C213.892 113.5 212.731 110.321 215.577 108.24ZM1.36395 110.329C1.86393 109.025 2.29819 108.896 3.18817 109.786C4.07716 110.675 4.07356 111.235 3.17156 112.137C1.6438 113.664 0.517033 112.537 1.36395 110.329ZM142.401 110.04C143.42 108.392 146.955 108.737 146.955 110.484C146.955 111.327 146.25 112.286 145.388 112.617C143.507 113.339 141.456 111.569 142.401 110.04ZM198.332 89.7538C199.769 88.8208 202.955 91.7971 202.955 94.0731C202.955 95.0681 202.085 96.3478 201.021 96.9179C195.912 99.6518 193.399 92.9558 198.332 89.7538ZM53.9899 90.8876C55.8619 87.3906 59.9547 89.2641 59.9548 93.6181C59.9548 96.521 56.4363 98.597 54.3913 96.9003C52.6944 95.4924 52.5651 93.5514 53.9899 90.8876ZM124.949 91.4599C126.748 89.2921 129.384 89.9791 129.775 92.7177C130.185 95.5927 127.358 96.7845 125.213 94.6405C123.886 93.3125 123.842 92.7938 124.949 91.4599ZM89.9548 92.453C89.9548 91.5361 90.439 90.9484 91.03 91.1454C91.6209 91.3424 92.1051 91.9311 92.1052 92.453C92.1052 92.975 91.621 93.5646 91.03 93.7616C90.439 93.9584 89.9548 93.3699 89.9548 92.453ZM106.012 73.8466C107.322 71.3997 110.172 71.4303 112.421 73.9159C114.452 76.1589 113.962 78.3446 111.082 79.8856C108.331 81.3569 104.461 76.7474 106.012 73.8466ZM71.7048 71.0331C74.3617 69.4851 75.3919 69.7252 77.9968 72.4979C80.7467 75.4249 79.87 78.213 76.0202 78.7831C71.4303 79.4631 67.953 73.2192 71.7048 71.0331ZM178.705 71.0331C181.256 69.5472 182.435 69.7213 184.38 71.871C188.234 76.1299 184.175 80.7468 179.008 77.9813C176.476 76.6264 176.293 72.4382 178.705 71.0331ZM214.155 72.1532C216.97 69.3383 222.522 71.8079 221.788 75.5477C221.237 78.3477 218.469 79.5078 215.533 78.1698C212.799 76.9248 212.163 74.1451 214.155 72.1532ZM34.9665 72.4403C36.6944 70.3586 40.3146 70.5883 42.4206 72.9159C45.6806 76.5179 42.054 80.2297 37.363 78.0927C34.3142 76.7037 33.3375 74.4023 34.9665 72.4403ZM143.955 74.452C145.696 72.3551 148.455 72.9691 148.455 75.453C148.455 77.662 145.336 78.7338 143.691 77.0888C142.956 76.3538 143.035 75.5609 143.955 74.452ZM91.4548 52.953C93.1596 52.953 95.0944 53.4933 95.7546 54.1532C98.5466 56.9452 95.7296 62.953 91.6286 62.953C87.2179 62.9526 84.2312 57.0771 87.155 54.1532C87.8149 53.4932 89.7498 52.9531 91.4548 52.953ZM123.2 54.1083C125.267 52.0413 129.919 53.1572 131.727 56.1522C134.87 61.3581 127.017 65.7348 123.512 60.7304C121.632 58.0474 121.526 55.7823 123.2 54.1083ZM234.455 52.953C238.789 52.953 240.43 57.6659 237.3 61.1239C235.255 63.3829 234.127 63.4187 231.784 61.2977C229.695 59.4067 229.388 55.9202 231.155 54.1532C231.815 53.4933 233.3 52.9531 234.455 52.953ZM53.2048 53.9618C59.9138 51.1998 63.8957 56.4948 58.3747 60.8368C54.8289 63.6256 53.1163 63.5071 51.9304 60.3886C50.4444 56.4786 50.7419 54.9758 53.2048 53.9618ZM160.564 54.4872C163.37 51.6813 166.955 53.3701 166.955 57.4979C166.955 60.0919 163.864 63.1327 162.245 62.1317C159.905 60.6855 158.907 56.1441 160.564 54.4872ZM195.587 54.2323C198.69 51.9604 203.399 52.9831 203.752 56.0048C204.176 59.6408 200.641 62.5122 196.284 62.0712C194.057 61.8459 193.515 55.7487 195.587 54.2323ZM17.3473 55.3749C18.0766 53.4732 21.3902 53.5672 23.0251 55.537C24.5491 57.374 23.2487 60.2546 20.6647 60.7636C18.8228 61.126 16.5544 57.4408 17.3473 55.3749ZM106.155 36.1532C107.628 34.6802 109.479 34.6282 112.021 35.9882C115.627 37.9182 113.772 42.953 109.455 42.953C105.545 42.9528 103.522 38.7862 106.155 36.1532ZM177.155 35.1532C178.855 33.4532 183.471 33.6656 185.005 35.5136C188.37 39.5695 181.517 45.325 177.395 41.9032C175.645 40.4512 175.515 36.7932 177.155 35.1532ZM35.9948 36.4052C37.4888 34.6052 39.0418 34.5655 41.3727 36.2694C43.4967 37.8224 43.1708 40.7877 40.7048 42.3407C37.2398 44.5227 33.338 39.6062 35.9948 36.4052ZM71.155 36.1532C73.9848 33.3233 79.3609 36.035 78.8005 40.0087C78.5425 41.8396 77.7501 42.5343 75.6452 42.7753C70.9402 43.3153 68.1341 39.1742 71.155 36.1532ZM144.168 37.1415C145.639 35.6695 146.962 36.0172 148.367 38.244C149.929 40.72 146.723 43.835 144.505 41.995C142.643 40.4492 142.527 38.7813 144.168 37.1415ZM214.033 37.3593C215.127 36.0413 215.465 36.0355 216.737 37.3075C218.339 38.9095 217.62 40.953 215.455 40.953C213.373 40.9529 212.623 39.0582 214.033 37.3593ZM195.979 22.9296C199.6 19.3086 204.362 21.486 203.791 26.5018C203.483 29.2058 203.13 29.453 199.57 29.453C194.623 29.453 192.788 26.1205 195.979 22.9296ZM122.99 18.8876C125.233 14.6976 132.366 18.4534 131.789 23.5214C131.523 25.8602 130.909 26.5165 128.754 26.7655C123.152 27.4112 120.424 23.6833 122.99 18.8876ZM54.11 19.5575C58.552 16.4465 62.0997 21.7018 58.0378 25.3778C56.5088 26.7618 55.6998 26.8869 54.0378 25.9979C51.3411 24.5539 51.3753 21.4734 54.11 19.5575ZM163.455 17.953C166.798 17.953 168.127 23.2547 165.179 24.8329C161.481 26.8119 158.169 22.1392 161.155 19.1532C161.815 18.4933 162.85 17.9532 163.455 17.953ZM91.9548 21.953C92.5047 21.953 92.9547 22.4031 92.9548 22.953C92.9548 23.503 92.5048 23.953 91.9548 23.953C91.4049 23.9529 90.9548 23.5029 90.9548 22.953C90.9548 22.4032 91.4049 21.9532 91.9548 21.953ZM107.061 1.75477C108.525 -0.979662 111.39 -0.0898075 111.772 3.21669C112.171 6.67755 109.3 8.145 107.349 5.47743C106.397 4.17543 106.317 3.14477 107.061 1.75477ZM142.264 1.58876C143.043 -0.437771 147.288 -0.554549 148.915 1.40517C150.968 3.87805 149.761 6.45278 146.55 6.45302C143.362 6.45302 141.297 4.10976 142.264 1.58876Z" fill="#F82D19" fill-opacity="0.54"/>
</g>
</defs>
</svg>
